<svg width="24" height="24" viewBox="0 0 24 24" fill="none" xmlns="http://www.w3.org/2000/svg">
<path d="M11 4C11 4 11 3 12 3C13 3 13 4 13 4V5C13 5 13 6 12 6C11 6 11 5 11 5V4ZM20 11C20 11 21 11 21 12C21 13 20 13 20 13H19C19 13 18 13 18 12C18 11 19 11 19 11H20ZM5 11C5 11 6 11 6 12C6 13 5 13 5 13H4C4 13 3 13 3 12C3 11 4 11 4 11H5ZM7.5605 6.6465C7.5605 6.6465 8.2675 7.3535 7.5605 8.0605C6.8535 8.7675 6.1465 8.0605 6.1465 8.0605L5.439 7.354C5.439 7.354 4.732 6.647 5.439 5.9395C6.1465 5.2325 6.8535 5.9395 6.8535 5.9395L7.5605 6.6465ZM18.0605 17.1465C18.0605 17.1465 18.7675 17.8535 18.0605 18.5605C17.3535 19.2675 16.6465 18.5605 16.6465 18.5605L15.9395 17.8535C15.9395 17.8535 15.2325 17.1465 15.9395 16.4395C16.6465 15.7325 17.3535 16.4395 17.3535 16.4395L18.0605 17.1465ZM17.854 8.0605C17.854 8.0605 17.147 8.7675 16.44 8.0605C15.733 7.3535 16.44 6.6465 16.44 6.6465L17.147 5.9395C17.147 5.9395 17.854 5.2325 18.561 5.9395C19.268 6.6465 18.561 7.3535 18.561 7.3535L17.854 8.0605ZM7.354 18.5605C7.354 18.5605 6.647 19.2675 5.94 18.5605C5.233 17.8535 5.94 17.1465 5.94 17.1465L6.647 16.4395C6.647 16.4395 7.354 15.7325 8.061 16.4395C8.768 17.1465 8.061 17.8535 8.061 17.8535L7.354 18.5605ZM11 19C11 19 11 18 12 18C13 18 13 19 13 19V20C13 20 13 21 12 21C11 21 11 20 11 20V19Z" fill="#FFAC33"/>
<path d="M11.9999 16.9999C14.7614 16.9999 16.9999 14.7614 16.9999 11.9999C16.9999 9.2385 14.7614 6.99993 11.9999 6.99993C9.2385 6.99993 6.99993 9.2385 6.99993 11.9999C6.99993 14.7614 9.2385 16.9999 11.9999 16.9999Z" fill="#FFAC33"/>
</svg>
