<svg width="24" height="24" viewBox="0 0 24 24" fill="none" xmlns="http://www.w3.org/2000/svg">
<path d="M14.445 4L14.3043 4.69408L13.6364 4.83224L14.3075 4.98684L14.4641 5.68421L14.5952 4.99342L15.2727 4.85197L14.5984 4.6875L14.445 4Z" fill="#555761"/>
<path d="M17.6921 4.84211L17.1264 7.625L14.4545 8.17434L17.1392 8.78289L17.7624 11.5789L18.2834 8.81579L21 8.24671L18.2962 7.59211L17.6921 4.84211Z" fill="#555761"/>
<path d="M10.3636 4.84211C8.41068 4.84211 6.53771 5.6406 5.15676 7.06193C3.77581 8.48326 3 10.411 3 12.4211C3 14.4311 3.77581 16.3588 5.15676 17.7802C6.53771 19.2015 8.41068 20 10.3636 20C11.8562 19.9977 13.313 19.5287 14.5407 18.655C15.7684 17.7813 16.7092 16.5442 17.2383 15.1077C16.7942 15.2085 16.3411 15.2606 15.8864 15.2632C14.1775 15.2632 12.5387 14.5645 11.3303 13.3208C10.122 12.0772 9.44318 10.3904 9.44318 8.63158C9.44391 7.28091 9.84533 5.96268 10.5938 4.85321C10.5171 4.84827 10.4404 4.84457 10.3636 4.84211Z" fill="#555761"/>
</svg>
