<svg width="24" height="24" viewBox="0 0 24 24" fill="none" xmlns="http://www.w3.org/2000/svg">
<path d="M10 4C10 4 10 3 11 3C12 3 12 4 12 4V5C12 5 12 6 11 6C10 6 10 5 10 5V4ZM18 10C18 10 19 10 19 11C19 12 18 12 18 12H17C17 12 16 12 16 11C16 10 17 10 17 10H18ZM5 10C5 10 6 10 6 11C6 12 5 12 5 12H4C4 12 3 12 3 11C3 10 4 10 4 10H5ZM6.936 6.0215C6.936 6.0215 7.643 6.7285 6.936 7.4355C6.229 8.1425 5.522 7.4355 5.522 7.4355L4.8145 6.729C4.8145 6.729 4.1075 6.022 4.8145 5.3145C5.522 4.6075 6.229 5.3145 6.229 5.3145L6.936 6.0215ZM16.4785 7.4355C16.4785 7.4355 15.7715 8.1425 15.0645 7.4355C14.3575 6.7285 15.0645 6.0215 15.0645 6.0215L15.7715 5.3145C15.7715 5.3145 16.4785 4.6075 17.1855 5.3145C17.8925 6.0215 17.1855 6.7285 17.1855 6.7285L16.4785 7.4355Z" fill="#FFAC33"/>
<path d="M11 16.0001C13.4853 16.0001 15.5 13.9853 15.5 11.5001C15.5 9.01478 13.4853 7.00006 11 7.00006C8.5147 7.00006 6.49999 9.01478 6.49999 11.5001C6.49999 13.9853 8.5147 16.0001 11 16.0001Z" fill="#FFAC33"/>
<path d="M17 13C16.5875 13 16.19 13.0625 15.8155 13.1785C15.372 11.911 14.169 11 12.75 11C11.228 11 9.954 12.048 9.6005 13.4605C9.2235 13.1755 8.7595 13 8.25 13C7.0075 13 6 14.0075 6 15.25C6 15.552 6.0615 15.839 6.1695 16.102C5.955 16.0425 5.7335 16 5.5 16C4.119 16 3 17.119 3 18.5C3 19.881 4.119 21 5.5 21H17C19.209 21 21 19.2095 21 17C21 14.791 19.209 13 17 13Z" fill="#E1E8ED"/>
</svg>
