<svg width="24" height="24" viewBox="0 0 24 24" fill="none" xmlns="http://www.w3.org/2000/svg">
<g opacity="0.6">
<path d="M8.23238 4L7.99292 5.30625L6.91282 5.61875L7.99547 5.8875L8.20436 7.2L8.45146 5.87188L9.52137 5.58125L8.45655 5.32187L8.23238 4ZM17.347 4C16.4914 4.00018 15.6594 4.34439 14.9785 4.97991C14.2976 5.61544 13.8052 6.50724 13.5768 7.51875C14.2412 7.79443 14.8614 8.23201 15.3575 8.84063C16.2026 9.8773 16.6949 11.3339 16.6949 12.8V12.8094C16.6946 12.8639 16.6812 12.9174 16.6796 12.9719C16.9132 13.1578 17.1276 13.3748 17.3343 13.6C17.3385 13.6 17.3428 13.6 17.347 13.6C18.14 13.5987 18.9139 13.3019 19.5663 12.7488C20.2187 12.1958 20.7186 11.4126 21 10.5031C20.764 10.5664 20.5232 10.5989 20.2816 10.6C19.3736 10.6 18.5028 10.1575 17.8607 9.36985C17.2186 8.5822 16.8579 7.51391 16.8579 6.4C16.8582 5.54431 17.0715 4.70914 17.4693 4.00625C17.4286 4.00338 17.3878 4.0013 17.347 4ZM4.97679 6.4L4.61506 8.35938L3 8.825L4.6227 9.23125L4.93603 11.2L5.30795 9.20937L6.91282 8.775L5.3156 8.38125L4.97679 6.4Z" fill="#555761"/>
<path d="M12.1299 8.8C11.5573 8.80091 10.9949 8.98682 10.4994 9.339C10.004 9.69119 9.59282 10.1972 9.30739 10.8062C8.98487 10.5411 8.60533 10.3997 8.2171 10.4C7.69822 10.4 7.2006 10.6529 6.8337 11.1029C6.46681 11.553 6.26068 12.1635 6.26068 12.8C6.26062 13.0971 6.30554 13.3917 6.39315 13.6687C5.80422 13.8156 5.2747 14.2074 4.89409 14.778C4.51349 15.3485 4.30514 16.0628 4.30427 16.8C4.30427 17.6487 4.5791 18.4626 5.0683 19.0627C5.5575 19.6629 6.22099 20 6.91282 20H14.7385C15.4303 20 16.0938 19.6629 16.583 19.0627C17.0722 18.4626 17.347 17.6487 17.347 16.8C17.3468 16.0726 17.1445 15.367 16.7736 14.7996C16.4027 14.2321 15.8852 13.8365 15.3065 13.6781C15.3609 13.3901 15.3891 13.0956 15.3906 12.8C15.3906 11.7391 15.0471 10.7217 14.4356 9.97157C13.8241 9.22143 12.9947 8.8 12.1299 8.8Z" fill="#555761"/>
</g>
</svg>
