<svg width="24" height="24" viewBox="0 0 24 24" fill="none" xmlns="http://www.w3.org/2000/svg">
<path d="M19.3607 12.5002C19.1421 12.5002 18.9299 12.5283 18.7267 12.5806C18.772 12.3746 18.7968 12.1605 18.7968 11.9402C18.7968 10.3642 17.5706 9.08662 16.058 9.08662C15.484 9.08662 14.9515 9.27095 14.5113 9.58539C13.9975 7.52289 12.1988 6 10.0586 6C7.51806 6 5.45853 8.14588 5.45853 10.7929C3.54846 10.7929 2 12.4063 2 14.3965C2 16.3866 3.54842 18 5.45853 18H19.3607C20.8184 18 22 16.7688 22 15.2501C22 13.7313 20.8184 12.5002 19.3607 12.5002Z" fill="#E1E8ED"/>
</svg>
