<svg width="24" height="24" viewBox="0 0 24 24" fill="none" xmlns="http://www.w3.org/2000/svg">
<path d="M16.5 7C16.1495 7 15.8115 7.053 15.4925 7.149C15.495 7.099 15.5 7.0505 15.5 7C15.5 5.3435 14.1565 4 12.5 4C11.1155 4 9.95353 4.939 9.60753 6.2135C9.26453 6.077 8.89153 6 8.50003 6C6.84303 6 5.50003 7.343 5.50003 9C5.50003 10.656 6.84303 12 8.50003 12C9.88453 12 11.0465 11.061 11.3925 9.786C11.7355 9.9225 12.1085 10 12.5 10C12.6875 10 12.87 9.9805 13.048 9.948C13.019 10.128 13 10.3115 13 10.5C13 12.4325 14.5675 14 16.5 14C18.4325 14 20 12.4325 20 10.5C20 8.567 18.4325 7 16.5 7Z" fill="#CCD6DD"/>
<path d="M18.5 13.9999C18.2665 13.9999 18.045 14.0424 17.8305 14.1019C17.9385 13.8389 18 13.5519 18 13.2499C18 12.0074 16.9925 10.9999 15.75 10.9999C15.2405 10.9999 14.7765 11.1754 14.3995 11.4604C14.0465 10.0479 12.772 8.99994 11.25 8.99994C9.831 8.99994 8.6275 9.91094 8.1845 11.1784C7.8105 11.0624 7.4125 10.9999 7 10.9999C4.791 10.9999 3 12.7909 3 14.9999C3 17.2094 4.791 18.9999 7 18.9999H18.5C19.881 18.9999 21 17.8809 21 16.4999C21 15.1189 19.881 13.9999 18.5 13.9999Z" fill="#E1E8ED"/>
</svg>
