<svg width="24" height="24" viewBox="0 0 24 24" fill="none" xmlns="http://www.w3.org/2000/svg">
<path d="M17 5.03043C16.5875 5.03043 16.19 5.09388 15.8155 5.21165C15.372 3.92486 14.169 3 12.75 3C11.228 3 9.954 4.06395 9.6005 5.49794C9.2235 5.2086 8.7595 5.03043 8.25 5.03043C7.0075 5.03043 6 6.05326 6 7.31466C6 7.62126 6.0615 7.91262 6.1695 8.17963C5.955 8.11922 5.7335 8.07607 5.5 8.07607C4.119 8.07607 3 9.2121 3 10.6141C3 12.0161 4.119 13.1521 5.5 13.1521H17C19.209 13.1521 21 11.3344 21 9.09129C21 6.84868 19.209 5.03043 17 5.03043Z" fill="#E1E8ED"/>
<path d="M8.99957 15.6704L8.94307 13.9338L7.50807 14.8008C7.18907 14.976 6.97707 15.3206 6.99007 15.714C7.00857 16.2739 7.47307 16.717 8.02807 16.7054C8.58257 16.6937 9.01807 16.2297 8.99957 15.6704ZM8.01007 19.4571L7.95357 17.7206L6.51857 18.5876C6.19957 18.7627 5.98757 19.1074 6.00057 19.5008C6.01907 20.0607 6.48357 20.5038 7.03857 20.4921C7.59357 20.4804 8.02857 20.0165 8.01007 19.4571ZM5.51007 17.1932L5.45357 15.4567L4.01857 16.3237C3.69957 16.4988 3.48757 16.8434 3.50057 17.2368C3.51907 17.7962 3.98357 18.2394 4.53857 18.2282C5.09357 18.2165 5.52857 17.7526 5.51007 17.1932ZM14.5101 15.6704L14.4536 13.9338L13.0191 14.8008C12.6996 14.976 12.4881 15.3206 12.5011 15.714C12.5196 16.2739 12.9841 16.717 13.5391 16.7054C14.0936 16.6937 14.5286 16.2297 14.5101 15.6704ZM11.4996 17.7008L11.4431 15.9643L10.0086 16.8313C9.68907 17.0064 9.47757 17.3511 9.49057 17.7444C9.50907 18.3043 9.97357 18.7475 10.5286 18.7358C11.0831 18.7241 11.5181 18.2602 11.4996 17.7008ZM14.0101 19.9647L13.9531 18.2282L12.5186 19.0952C12.1991 19.2703 11.9876 19.615 12.0006 20.0084C12.0191 20.5683 12.4836 21.0114 13.0386 20.9997C13.5936 20.9881 14.0286 20.5241 14.0101 19.9647ZM17.4996 17.1932L17.4431 15.4567L16.0086 16.3237C15.6891 16.4988 15.4776 16.8434 15.4906 17.2368C15.5091 17.7967 15.9736 18.2399 16.5286 18.2282C17.0831 18.2165 17.5181 17.7526 17.4996 17.1932Z" fill="#5DADEC"/>
</svg>
