<svg width="24" height="24" viewBox="0 0 24 24" fill="none" xmlns="http://www.w3.org/2000/svg">
<path d="M8.70732 3.89999C8.70732 3.89999 8.70732 3 9.58537 3C10.4634 3 10.4634 3.89999 10.4634 3.89999V4.79998C10.4634 4.79998 10.4634 5.69997 9.58537 5.69997C8.70732 5.69997 8.70732 4.79998 8.70732 4.79998V3.89999ZM4.7561 8.84994C4.7561 8.84994 5.63415 8.84994 5.63415 9.74993C5.63415 10.6499 4.7561 10.6499 4.7561 10.6499H3.87805C3.87805 10.6499 3 10.6499 3 9.74993C3 8.84994 3.87805 8.84994 3.87805 8.84994H4.7561ZM6.456 5.71932C6.456 5.71932 7.07678 6.35561 6.456 6.99191C5.83522 7.6282 5.21444 6.99191 5.21444 6.99191L4.59322 6.35606C4.59322 6.35606 3.97244 5.71977 4.59322 5.08303C5.21444 4.44673 5.83522 5.08303 5.83522 5.08303L6.456 5.71932ZM13.9567 6.99191C13.9567 6.99191 13.336 7.6282 12.7152 6.99191C12.0944 6.35561 12.7152 5.71932 12.7152 5.71932L13.336 5.08303C13.336 5.08303 13.9567 4.44673 14.5775 5.08303C15.1983 5.71932 14.5775 6.35561 14.5775 6.35561L13.9567 6.99191Z" fill="#FFAC33"/>
<path d="M10.0244 13.7999C11.9641 13.7999 13.5366 12.1881 13.5366 10.1999C13.5366 8.21172 11.9641 6.59996 10.0244 6.59996C8.08466 6.59996 6.5122 8.21172 6.5122 10.1999C6.5122 12.1881 8.08466 13.7999 10.0244 13.7999Z" fill="#FFAC33"/>
<path d="M17.5857 10.5599C17.2332 10.5599 16.8942 10.6135 16.5742 10.7129C16.1958 9.62888 15.1689 8.84994 13.9572 8.84994C12.6581 8.84994 11.5702 9.74587 11.269 10.9537C10.9472 10.7098 10.5508 10.5599 10.1161 10.5599C9.05502 10.5599 8.19541 11.4212 8.19541 12.4836C8.19541 12.7415 8.2481 12.9872 8.33985 13.2122C8.15678 13.1613 7.96756 13.1249 7.76824 13.1249C6.58946 13.1249 5.63415 14.0816 5.63415 15.2624C5.63415 16.4432 6.58946 17.3998 7.76824 17.3998H17.5853C19.4713 17.3998 21 15.869 21 13.9799C21 12.0908 19.4713 10.5599 17.5857 10.5599Z" fill="#E1E8ED"/>
<path d="M10.9021 20.0823L10.8525 18.5428L9.59293 19.3114C9.31239 19.4667 9.12668 19.7722 9.1381 20.121C9.15434 20.6169 9.56219 21.0102 10.0495 20.9998C10.5364 20.9895 10.9183 20.5782 10.9021 20.0823ZM7.83814 19.3893L7.7881 17.8498L6.52853 18.6184C6.248 18.7737 6.06185 19.0792 6.07371 19.428C6.08995 19.9243 6.4978 20.3172 6.98512 20.3068C7.47244 20.2965 7.85439 19.8852 7.83814 19.3893ZM13.9845 19.6323L13.9349 18.0928L12.6753 18.8614C12.3948 19.0167 12.2091 19.3222 12.2205 19.671C12.2367 20.1669 12.6446 20.5602 13.1319 20.5498C13.6188 20.5395 14.0007 20.1282 13.9845 19.6323ZM16.609 20.0823L16.5594 18.5428L15.2998 19.3114C15.0193 19.4667 14.8336 19.7722 14.8454 20.121C14.8617 20.6169 15.2691 21.0102 15.7568 20.9998C16.2437 20.9895 16.6252 20.5782 16.609 20.0823ZM19.2523 19.3893L19.2023 17.8498L17.9427 18.6184C17.6622 18.7737 17.4765 19.0792 17.4883 19.428C17.5046 19.9243 17.912 20.3172 18.3998 20.3068C18.8871 20.2965 19.2686 19.8852 19.2523 19.3893Z" fill="#5DADEC"/>
</svg>
