<svg width="24" height="24" viewBox="0 0 24 24" fill="none" xmlns="http://www.w3.org/2000/svg">
<path d="M7.62859 11.9999C9.90086 11.9999 11.7429 10.2091 11.7429 7.99994C11.7429 5.79083 9.90086 4 7.62859 4C5.35632 4 3.5143 5.79083 3.5143 7.99994C3.5143 10.2091 5.35632 11.9999 7.62859 11.9999Z" fill="#555761"/>
<path d="M17.0004 8.39994C16.5874 8.39994 16.1904 8.45944 15.8155 8.56994C15.3722 7.36545 14.1693 6.49997 12.7498 6.49997C11.2281 6.49997 9.95366 7.49545 9.60086 8.83743C9.22389 8.56644 8.75949 8.39994 8.25034 8.39994C7.00731 8.39994 6.00034 9.35693 6.00034 10.5374C6.00034 10.8239 6.06206 11.0969 6.16954 11.3469C5.95509 11.2904 5.73343 11.2499 5.49994 11.2499C4.11909 11.2499 3 12.3129 3 13.6249C3 14.9368 4.11909 15.9998 5.49994 15.9998H16.9999C19.2093 15.9998 21 14.2989 21 12.1999C21 10.1009 19.2093 8.39994 17.0004 8.39994Z" fill="#E1E8ED"/>
<path d="M8.65676 18.9803L8.59864 17.2698L7.12314 18.1238C6.79451 18.2963 6.57697 18.6358 6.59034 19.0233C6.60937 19.5743 7.08714 20.0113 7.65801 19.9998C8.22836 19.9883 8.67578 19.5313 8.65676 18.9803ZM5.06754 18.2103L5.00891 16.4998L3.53343 17.3538C3.2048 17.5263 2.98674 17.8658 3.00063 18.2533C3.01966 18.8048 3.49743 19.2413 4.06828 19.2298C4.63914 19.2183 5.08657 18.7613 5.06754 18.2103ZM12.2676 18.4803L12.2094 16.7698L10.734 17.6238C10.4053 17.7963 10.1878 18.1358 10.2012 18.5233C10.2202 19.0743 10.698 19.5113 11.2688 19.4998C11.8392 19.4883 12.2866 19.0313 12.2676 18.4803ZM15.342 18.9803L15.2838 17.2698L13.8084 18.1238C13.4797 18.2963 13.2622 18.6358 13.2761 19.0233C13.2951 19.5743 13.7724 20.0113 14.3437 19.9998C14.9141 19.9883 15.361 19.5313 15.342 18.9803ZM18.4385 18.2103L18.3798 16.4998L16.9044 17.3538C16.5757 17.5263 16.3582 17.8658 16.3721 18.2533C16.3911 18.8048 16.8684 19.2413 17.4397 19.2298C18.0106 19.2183 18.4575 18.7613 18.4385 18.2103Z" fill="#5DADEC"/>
</svg>
