<svg width="24" height="24" viewBox="0 0 24 24" fill="none" xmlns="http://www.w3.org/2000/svg">
<path d="M9.9585 21C9.913 21 9.8675 20.9855 9.8295 20.9555C9.751 20.8935 9.7275 20.785 9.773 20.6965L11.5 17.5H8.961C8.874 17.5 8.742 17.4845 8.68 17.3515C8.623 17.23 8.6515 17.1145 8.7035 17L10.5 12.5C10.539 12.4665 13.951 12.6965 14 12.6965C14.045 12.6965 14.091 12.711 14.1285 12.741C14.207 12.803 14.2305 12.9115 14.1845 13.0005L12.276 16.0005H14.792C14.879 16.0005 14.9565 16.0545 14.9875 16.136C15.0175 16.2175 14.994 16.3095 14.928 16.3665L10.095 20.9495C10.0555 20.983 10.007 21 9.9585 21Z" fill="#F4900C"/>
<path d="M17 5C16.5875 5 16.19 5.0625 15.8155 5.1785C15.372 3.911 14.169 3 12.75 3C11.228 3 9.954 4.048 9.6005 5.4605C9.2235 5.1755 8.7595 5 8.25 5C7.0075 5 6 6.0075 6 7.25C6 7.552 6.0615 7.839 6.1695 8.102C5.955 8.0425 5.7335 8 5.5 8C4.119 8 3 9.119 3 10.5C3 11.881 4.119 13 5.5 13H17C19.209 13 21 11.2095 21 9C21 6.791 19.209 5 17 5Z" fill="#E1E8ED"/>
</svg>
