<svg width="24" height="24" viewBox="0 0 24 24" fill="none" xmlns="http://www.w3.org/2000/svg">
<path d="M12.5396 16.793V7.2075L15.1466 4.793C15.1466 4.793 15.5284 4.4395 15.1466 4.0855C14.7649 3.732 14.3831 4.0855 14.3831 4.0855L12.5396 5.793V3.5C12.5396 3.5 12.5396 3 11.9996 3C11.4596 3 11.4596 3.5 11.4596 3.5V5.793L9.6161 4.0855C9.6161 4.0855 9.23433 3.732 8.85256 4.0855C8.47079 4.4395 8.85256 4.793 8.85256 4.793L11.4596 7.2075V16.793L8.85256 19.207C8.85256 19.207 8.47079 19.5605 8.85256 19.914C9.23433 20.2675 9.6161 19.914 9.6161 19.914L11.4596 18.207V20.5C11.4596 20.5 11.4596 21 11.9996 21C12.5396 21 12.5396 20.5 12.5396 20.5V18.207L14.3831 19.914C14.3831 19.914 14.7649 20.2675 15.1466 19.914C15.5284 19.5605 15.1466 19.207 15.1466 19.207L12.5396 16.793Z" fill="#E1E8ED"/>
<path d="M20.9752 13.433C20.8354 12.95 20.3137 13.0795 20.3137 13.0795L16.7525 13.963L7.78717 9.17L6.83302 5.8725C6.83302 5.8725 6.69317 5.3895 6.17154 5.519C5.64937 5.6485 5.78977 6.1315 5.78977 6.1315L6.46475 8.4635L4.31993 7.3165C4.31993 7.3165 3.85231 7.0665 3.58231 7.4995C3.31232 7.9325 3.77995 8.1825 3.77995 8.1825L5.92423 9.329L3.40574 9.9535C3.40574 9.9535 2.88357 10.083 3.02397 10.566C3.16383 11.0495 3.68545 10.92 3.68545 10.92L7.24719 10.0365L16.2126 14.8295L17.1667 18.1275C17.1667 18.1275 17.3066 18.6105 17.8282 18.481C18.3498 18.351 18.21 17.8685 18.21 17.8685L17.535 15.5365L19.6798 16.683C19.6798 16.683 20.148 16.933 20.4179 16.5005C20.6879 16.067 20.2198 15.817 20.2198 15.817L18.0755 14.6705L20.5934 14.046C20.5934 14.046 21.1151 13.916 20.9752 13.433Z" fill="#E1E8ED"/>
<path d="M20.5934 9.9535L18.075 9.3285L20.2198 8.182C20.2198 8.182 20.6879 7.9315 20.4179 7.4985C20.1474 7.065 19.6798 7.3155 19.6798 7.3155L17.5355 8.4615L18.21 6.13C18.21 6.13 18.3498 5.647 17.8282 5.5175C17.3066 5.388 17.1667 5.871 17.1667 5.871L16.2126 9.1685L7.24665 13.963L3.68599 13.079C3.68599 13.079 3.16437 12.9495 3.02451 13.4325C2.88411 13.916 3.40628 14.045 3.40628 14.045L5.92423 14.6695L3.77995 15.816C3.77995 15.816 3.31286 16.0665 3.58285 16.4995C3.85285 16.932 4.31993 16.682 4.31993 16.682L6.46475 15.5355L5.78977 17.867C5.78977 17.867 5.64991 18.3505 6.17154 18.4795C6.6937 18.6095 6.83356 18.1265 6.83356 18.1265L7.78825 14.828L16.7542 10.0355L20.3154 10.9195C20.3154 10.9195 20.837 11.049 20.9768 10.566C21.1145 10.0825 20.5934 9.9535 20.5934 9.9535Z" fill="#E1E8ED"/>
</svg>
