<svg width="24" height="24" viewBox="0 0 24 24" fill="none" xmlns="http://www.w3.org/2000/svg">
<path d="M15.0806 14.7468C14.0094 14.9174 12.8373 15.3533 11.6241 16.2937C7.4525 19.5272 4.49502 16.3904 4.49502 16.3904C4.40833 16.2661 4.30233 16.1689 4.18453 16.1058C4.06674 16.0427 3.94005 16.0152 3.81344 16.0252C3.68683 16.0352 3.56342 16.0825 3.45195 16.1637C3.34049 16.2449 3.24371 16.3581 3.16847 16.4952C3.09324 16.6323 3.0414 16.7899 3.01664 16.9569C2.99187 17.1239 2.99479 17.2962 3.02517 17.4615C3.05556 17.6268 3.11268 17.7811 3.19247 17.9134C3.27226 18.0458 3.37277 18.1529 3.48687 18.2273C3.48687 18.2273 7.55146 22.1506 12.4882 18.324C16.5601 15.1677 19.6172 18.2756 19.6172 18.2756C19.8082 18.4549 20.0444 18.5251 20.2739 18.4707C20.5034 18.4162 20.7074 18.2416 20.8411 17.9853C20.9748 17.7289 21.0271 17.4118 20.9867 17.1037C20.9462 16.7955 20.8163 16.5216 20.6254 16.342C20.6254 16.342 18.2942 14.235 15.0806 14.7468Z" fill="#E1E8ED"/>
<path d="M15.0806 9.41348C14.0094 9.58408 12.8373 10.02 11.6241 10.9604C7.4525 14.1939 4.49502 11.057 4.49502 11.057C4.40833 10.9328 4.30233 10.8356 4.18453 10.7725C4.06674 10.7094 3.94005 10.6818 3.81344 10.6919C3.68683 10.7019 3.56342 10.7491 3.45195 10.8304C3.34049 10.9116 3.24371 11.0248 3.16847 11.1619C3.09324 11.2989 3.0414 11.4566 3.01664 11.6236C2.99187 11.7906 2.99479 11.9628 3.02517 12.1281C3.05556 12.2934 3.11268 12.4478 3.19247 12.5801C3.27226 12.7125 3.37277 12.8196 3.48687 12.894C3.48687 12.894 7.55146 16.8173 12.4882 12.9906C16.5601 9.83436 19.6172 12.9423 19.6172 12.9423C19.8082 13.1216 20.0444 13.1918 20.2739 13.1373C20.5034 13.0829 20.7074 12.9083 20.8411 12.652C20.9748 12.3956 21.0271 12.0785 20.9867 11.7704C20.9462 11.4622 20.8163 11.1882 20.6254 11.0087C20.6254 11.0087 18.2942 8.90166 15.0806 9.41348Z" fill="#E1E8ED"/>
<path d="M15.0806 4.08014C14.0094 4.25075 12.8373 4.68663 11.6241 5.62702C7.4525 8.86057 4.49502 5.7237 4.49502 5.7237C4.40833 5.59942 4.30233 5.50227 4.18453 5.43916C4.06674 5.37605 3.94005 5.34852 3.81344 5.35852C3.68683 5.36852 3.56342 5.41582 3.45195 5.49704C3.34049 5.57827 3.24371 5.69144 3.16847 5.82852C3.09324 5.9656 3.0414 6.12323 3.01664 6.29022C2.99187 6.45722 2.99479 6.62949 3.02517 6.7948C3.05556 6.96011 3.11268 7.11442 3.19247 7.24677C3.27226 7.37913 3.37277 7.48628 3.48687 7.56062C3.48687 7.56062 7.55146 11.484 12.4882 7.6573C16.5601 4.50103 19.6172 7.60896 19.6172 7.60896C19.8082 7.78828 20.0444 7.85843 20.2739 7.80399C20.5034 7.74954 20.7074 7.57496 20.8411 7.31862C20.9748 7.06228 21.0271 6.74518 20.9867 6.43703C20.9462 6.12888 20.8163 5.85491 20.6254 5.67536C20.6254 5.67536 18.2942 3.56833 15.0806 4.08014Z" fill="#E1E8ED"/>
</svg>
